<?xml version="1.0" encoding="utf-8"?><!DOCTYPE svg PUBLIC "-//W3C//DTD SVG 1.1//EN" "http://www.w3.org/Graphics/SVG/1.1/DTD/svg11.dtd"><svg version="1.1" baseProfile="full" xmlns="http://www.w3.org/2000/svg" xmlns:xlink="http://www.w3.org/1999/xlink" xmlns:ev="http://www.w3.org/2001/xml-events"   height="580px"   width="580px" ><defs><linearGradient id="PSgrad_0" x1="0%" x2="0%" y1="100%" y2="0%">  <stop offset="0%" stop-color="rgb(13,30,95)" stop-opacity="1" />  <stop offset="47%" stop-color="rgb(9,18,103)" stop-opacity="1" />  <stop offset="100%" stop-color="rgb(0,222,255)" stop-opacity="1" /></linearGradient><linearGradient id="PSgrad_1" x1="0%" x2="0%" y1="100%" y2="0%">  <stop offset="0%" stop-color="rgb(50,71,149)" stop-opacity="1" />  <stop offset="47%" stop-color="rgb(101,52,138)" stop-opacity="1" />  <stop offset="100%" stop-color="rgb(0,222,255)" stop-opacity="1" /></linearGradient></defs><path fill="url(#PSgrad_0)" d="M290,0 C450.163,0 580,129.837 580,290 C580,450.162 450.163,580 290,580 C129.837,580 0,450.162 0,290 C0,129.837 129.837,0 290,0 Z "/><path opacity="0.102" fill="rgb( 27, 6, 42 )" d="M290,0 C450.163,0 580,129.837 580,290 C580,450.163 450.163,580 290,580 C529.262,456.879 538.723,139.974 290,0 Z "/><path opacity="0.8" fill="rgb( 33, 145, 232 )" d="M369.018,10.896 C444.622,32.258 507.682,83.512 544.626,151.086 C466.857,116.859 446.463,67.37 397.216,58.129 C357.551,50.687 316.294,103.276 285.479,109.8 C235.846,120.307 192.597,73.99 154.75,33.404 C172.128,24.226 190.55,16.761 209.793,11.234 C225.781,24.815 261.734,53.751 288.062,53.608 C315.47,53.459 350.676,22.089 369.018,10.896 Z "/><path opacity="0.8" fill="rgb( 23, 135, 200 )" d="M295.167,182.138 C392.103,202.002 468.97,144.265 528.659,125.206 C536.858,137.058 544.198,149.55 550.586,162.592 C495.09,176.445 468.111,189.938 424.989,209.911 C336.58,250.858 220.033,229.458 182.784,210.557 C128.406,182.965 101.276,163.504 50.968,125.746 C62.669,108.75 76.136,93.064 91.104,78.953 C166.628,132.874 210.779,164.846 295.167,182.138 Z "/><path opacity="0.2" fill="rgb( 8, 27, 111 )" d="M369.018,569.104 C444.622,547.742 507.682,496.488 544.626,428.914 C466.857,463.141 446.463,512.63 397.216,521.871 C357.551,529.313 316.294,476.724 285.479,470.201 C235.846,459.693 192.597,506.01 154.75,546.596 C172.128,555.774 190.55,563.239 209.793,568.766 C225.781,555.185 261.734,526.248 288.062,526.392 C315.47,526.541 350.676,557.911 369.018,569.104 Z "/><path opacity="0.2" fill="rgb( 26, 55, 109 )" d="M273.853,477.305 C378.143,473.755 468.97,436.381 528.659,455.44 C536.858,443.588 544.198,431.096 550.586,418.053 C495.09,404.201 462.944,405.502 419.822,415.301 C324.813,436.889 237.452,422.649 198.285,419.176 C137.546,413.79 101.276,417.142 50.968,454.9 C62.669,471.896 76.136,487.582 91.104,501.693 C177.984,460.896 187.761,480.236 273.853,477.305 Z "/><path opacity="0.302" fill="url(#PSgrad_1)" d="M290,0 C450.163,0 580,129.837 580,290 C580,450.162 450.163,580 290,580 C129.837,580 0,450.162 0,290 C0,129.837 129.837,0 290,0 Z "/></svg>